HIERARCHY
ROOT Hips
{
     OFFSET 55.93800 98.18250 49.34430
     CHANNELS 6 Xposition Yposition Zposition Zrotation Xrotation Yrotation
     JOINT Spine
     {
          OFFSET -0.00000 11.89050 0.00000
          CHANNELS 3 Zrotation Xrotation Yrotation
          JOINT Spine1
          {
               OFFSET 0.00000 25.65740 0.12766
               CHANNELS 3 Zrotation Xrotation Yrotation
               JOINT HEad
               {
                    OFFSET -0.00000 8.73416 0.01134
                    CHANNELS 3 Zrotation Xrotation Yrotation
                    End Site
                    {
                         OFFSET -0.29000 12.77420 2.51395
                    }
               }
               JOINT LeftShoulder1
               {
                    OFFSET 8.99000 -0.36225 -0.22000
                    CHANNELS 3 Zrotation Xrotation Yrotation
                    JOINT LeftArm
                    {
                         OFFSET 10.28270 -0.00338 0.32212
                         CHANNELS 3 Zrotation Xrotation Yrotation
                         JOINT LeftForeArm
                         {
                              OFFSET 32.76690 0.09914 -1.42434
                              CHANNELS 3 Zrotation Xrotation Yrotation
                              JOINT LeftHand
                              {
                                   OFFSET 27.56430 0.08536 1.02216
                                   CHANNELS 3 Zrotation Xrotation Yrotation
                                   End Site
                                   {
                                        OFFSET 16.74430 -0.60000 1.50291
                                   }
                              }
                         }
                    }
               }
               JOINT RightShoulder
               {
                    OFFSET -8.99000 -0.36225 -0.22000
                    CHANNELS 3 Zrotation Xrotation Yrotation
                    JOINT RightArm
                    {
                         OFFSET -10.28270 -0.00338 0.32212
                         CHANNELS 3 Zrotation Xrotation Yrotation
                         JOINT RightForeArm
                         {
                              OFFSET -32.89710 0.09914 -1.42434
                              CHANNELS 3 Zrotation Xrotation Yrotation
                              JOINT RightHand
                              {
                                   OFFSET -27.49210 0.08536 1.02216
                                   CHANNELS 3 Zrotation Xrotation Yrotation
                                   End Site
                                   {
                                        OFFSET -16.63120 -0.60000 1.50291
                                   }
                              }
                         }
                    }
               }
          }
     }
     JOINT LeftUpLeg
     {
          OFFSET 8.94580 -8.66707 0.10165
          CHANNELS 3 Zrotation Xrotation Yrotation
          JOINT LeftLeg
          {
               OFFSET -0.00000 -44.42270 1.37270
               CHANNELS 3 Zrotation Xrotation Yrotation
               JOINT LeftFoot
               {
                    OFFSET -0.25355 -42.09240 -1.46059
                    CHANNELS 3 Zrotation Xrotation Yrotation
                    JOINT LeftToes
                    {
                         OFFSET -0.04000 -4.41509 8.49910
                         CHANNELS 3 Zrotation Xrotation Yrotation
                         End Site
                         {
                              OFFSET 0.08000 -0.04745 9.77979
                         }
                    }
               }
          }
     }
     JOINT RightUpLeg
     {
          OFFSET -8.94580 -8.66707 0.10165
          CHANNELS 3 Zrotation Xrotation Yrotation
          JOINT RightLeg
          {
               OFFSET 0.00000 -44.42270 1.37270
               CHANNELS 3 Zrotation Xrotation Yrotation
               JOINT RightFoot
               {
                    OFFSET 0.25355 -42.09240 -1.46059
                    CHANNELS 3 Zrotation Xrotation Yrotation
                    JOINT RightToes
                    {
                         OFFSET 0.04000 -4.41509 8.49910
                         CHANNELS 3 Zrotation Xrotation Yrotation
                         End Site
                         {
                              OFFSET -0.08000 -0.13745 9.77979
                         }
                    }
               }
          }
     }
}
MOTION
Frames: 10
Frame Time: 0.01667
55.93800 98.18250 49.34430 -2.83815 -0.99141 -41.17240 1.72771 3.74299 1.74798 6.43632 7.27920 2.62131 -10.29530 3.34971 15.68590 -0.00000 -0.00000 0.00000 -147.11200 -35.41570 -119.14700 -11.94600 61.51750 -99.22880 31.10170 4.15893 -16.73460 5.53144 1.19975 9.69513 88.30040 5.58810 79.29370 9.01513 33.16500 89.31710 -19.41260 9.97140 -4.75998 8.74577 -11.11220 -16.84570 -3.48842 19.63660 25.55820 -27.01700 -4.49308 0.77456 10.45160 -6.16910 -62.14180 -11.63020 9.66190 -18.56260 -1.97904 14.92530 5.47955 20.03440 -4.63093 -0.68919 1.93306 -17.51900 36.12810 
55.99040 98.19090 49.47410 -2.79469 -1.02548 -41.17310 1.75604 3.76594 1.84392 6.49950 7.32887 2.80722 -10.89060 3.59817 15.85620 -0.00000 -0.00000 0.00000 -147.22000 -35.11920 -118.58100 -11.56070 61.80540 -99.61000 31.19640 4.19607 -16.53560 5.59938 1.17200 9.32452 87.98300 5.92439 79.09900 9.07997 32.95740 89.24620 -19.36970 9.97127 -4.76016 8.65973 -11.13190 -16.88870 -3.65805 19.69090 25.69570 -26.87730 -4.49685 0.76959 10.43020 -6.27198 -62.22150 -11.76850 9.64532 -18.62790 -2.07185 14.98360 5.58791 20.30530 -4.52193 -0.71543 1.89501 -17.42630 36.29030 
55.99630 98.19270 49.57520 -2.63142 -1.12061 -41.11980 1.75868 3.78812 1.89861 6.48471 7.37714 2.91578 -11.63750 3.78242 16.23980 -0.00000 -0.00000 0.00000 -147.50101 -34.98210 -118.33900 -11.96130 62.01200 -99.17920 31.18500 4.20117 -16.52550 5.55045 1.15668 9.21153 87.71480 6.27627 78.92950 9.01419 32.74390 89.20530 -19.32880 9.98183 -4.82667 8.49177 -11.15440 -16.90650 -3.85527 19.64550 25.78400 -26.71140 -4.42730 0.78085 10.39260 -6.41812 -62.29080 -12.02050 9.61483 -18.59420 -2.08442 15.07730 5.50866 20.42990 -4.47363 -0.72737 1.91001 -17.45680 36.42590 
55.93830 98.18810 49.62840 -2.34987 -1.29086 -40.98630 1.75118 3.82224 1.88822 6.38445 7.45123 2.90390 -12.45950 3.78076 16.84170 -0.00000 -0.00000 0.00000 -147.95700 -35.07390 -118.50800 -13.11210 62.05220 -97.95920 31.07040 4.16265 -16.74360 5.33923 1.15650 9.43454 87.49790 6.61311 78.83580 8.75833 32.54950 89.21200 -19.31390 9.99428 -4.90433 8.23952 -11.15660 -16.82280 -4.01879 19.48330 25.69700 -26.60480 -4.29566 0.80801 10.36940 -6.51106 -62.34030 -12.35890 9.57306 -18.42370 -2.03573 15.24440 5.16128 20.42110 -4.58370 -0.70798 1.92929 -17.49820 36.52130 
55.80410 98.17880 49.61580 -1.97664 -1.52800 -40.73290 1.75373 3.87143 1.82352 6.21416 7.55967 2.79667 -13.23580 3.55144 17.58270 -0.00000 -0.00000 0.00000 -148.59399 -35.32120 -118.97000 -14.61740 61.99890 -96.37140 30.92000 4.09444 -17.09530 4.98189 1.15923 9.86776 87.29080 6.91884 78.84160 8.33190 32.36740 89.26990 -19.30810 9.99893 -4.93339 7.93601 -11.12990 -16.58270 -4.10564 19.20210 25.34300 -26.60100 -4.10873 0.85097 10.38260 -6.49556 -62.39160 -12.70640 9.51333 -18.16940 -2.00144 15.52660 4.55685 20.32670 -4.90000 -0.65064 1.92104 -17.47780 36.56910 
55.59050 98.16380 49.52140 -1.55594 -1.79301 -40.32110 1.78290 3.92424 1.73863 6.00991 7.68105 2.66324 -13.86900 3.19693 18.34630 -0.00000 -0.00000 0.00000 -149.32700 -35.57430 -119.45300 -15.94640 61.99340 -94.98130 30.82450 4.02496 -17.41410 4.58500 1.15462 10.29600 87.02440 7.16321 78.92330 7.82781 32.19960 89.38070 -19.28700 9.99772 -4.92655 7.66635 -11.10120 -16.23470 -4.16556 18.81440 24.76410 -26.66590 -3.85996 0.91054 10.42490 -6.40572 -62.47080 -12.95980 9.39277 -17.96610 -2.07983 15.99060 3.82013 20.15010 -5.36478 -0.56652 1.92792 -17.49410 36.55280 
55.30160 98.13750 49.32690 -1.14359 -2.04432 -39.74500 1.84660 3.97106 1.66465 5.81445 7.79590 2.56210 -14.33520 2.91208 19.04550 -0.00000 -0.00000 0.00000 -149.98199 -35.71940 -119.71900 -16.73620 62.11590 -94.16150 30.83840 3.97418 -17.58580 4.27818 1.14518 10.58000 86.66630 7.30458 79.02450 7.34961 32.07570 89.53930 -19.25900 9.99812 -4.92995 7.53673 -11.10090 -15.91720 -4.31320 18.33730 24.12240 -26.69880 -3.52508 0.98909 10.45060 -6.37608 -62.57150 -13.03640 9.12961 -17.96500 -2.37174 16.75640 3.16489 19.89410 -5.84481 -0.47990 2.04125 -17.75570 36.48620 
54.94350 98.09260 49.01220 -0.80437 -2.26496 -39.04930 1.94323 4.02221 1.61297 5.66489 7.92276 2.50799 -14.62880 2.85898 19.68360 -0.00000 -0.00000 0.00000 -150.41200 -35.72680 -119.74000 -16.88780 62.34180 -93.99880 30.95330 3.95012 -17.58670 4.11640 1.13748 10.70370 86.26460 7.32951 79.11130 6.97712 32.02200 89.70550 -19.24760 10.00160 -4.95220 7.62578 -11.12120 -15.76940 -4.62367 17.78940 23.58650 -26.60520 -3.08910 1.08584 10.40270 -6.55024 -62.63870 -12.90170 8.63130 -18.25880 -2.96603 17.98250 2.82343 19.64920 -6.21751 -0.41353 2.31543 -18.38370 36.45680 
54.51820 98.02440 48.56700 -0.59148 -2.45791 -38.31330 2.06828 4.10106 1.57329 5.58450 8.10595 2.47371 -14.69220 3.08123 20.36000 -0.00000 -0.00000 0.00000 -150.54201 -35.63700 -119.69300 -16.44900 62.55250 -94.41410 31.10550 3.95766 -17.44760 4.06601 1.13429 10.73310 85.90950 7.26434 79.20270 6.77472 32.03470 89.80390 -19.26620 10.00610 -4.97946 7.95509 -11.12310 -15.89430 -5.08023 17.19020 23.27480 -26.37460 -2.58463 1.19104 10.26190 -6.94917 -62.59350 -12.57020 7.81720 -18.86300 -3.93086 19.81190 2.98848 19.56690 -6.43329 -0.37649 2.71989 -19.29370 36.60450 
54.02150 97.93180 47.99730 -0.51760 -2.63016 -37.61870 2.22172 4.22282 1.52523 5.57525 8.37561 2.41955 -14.46410 3.52442 21.16380 -0.00000 -0.00000 0.00000 -150.35800 -35.52340 -119.81800 -15.48910 62.60120 -95.28490 31.21090 4.00044 -17.21910 4.05690 1.13460 10.74960 85.66460 7.15098 79.33490 6.79882 32.08850 89.76150 -19.32480 10.01140 -5.01005 8.48256 -11.07140 -16.35690 -5.59001 16.55590 23.25950 -26.08880 -2.08419 1.29029 10.06170 -7.45557 -62.38910 -12.09600 6.62656 -19.75300 -5.32526 22.31400 3.82434 19.75040 -6.47907 -0.37081 3.18351 -20.29690 37.04210 
